{
  "accessors": [
    {
      "bufferView": 2,
      "componentType": 5126,
      "count": 2785,
      "max": [0.08160299807786942, 0.10698799788951874, 0.024748999625444412],
      "min": [
        -0.16960300505161285, -0.1021609976887703, -0.00024199999461416155
      ],
      "type": "VEC3"
    },
    {
      "bufferView": 2,
      "byteOffset": 33420,
      "componentType": 5126,
      "count": 2785,
      "max": [0.9986365437507629, 0.9999805688858032, 0.9999858140945435],
      "min": [-0.9988011717796326, -0.9963339567184448, -0.9999963045120239],
      "type": "VEC3"
    },
    {
      "bufferView": 3,
      "componentType": 5126,
      "count": 2785,
      "max": [0.9877838492393494, 0.9985650777816772, 0.9888271689414978, 1.0],
      "min": [
        -0.9981557726860046, -0.977176308631897, -0.9985271096229553, -1.0
      ],
      "type": "VEC4"
    },
    {
      "bufferView": 1,
      "componentType": 5126,
      "count": 2785,
      "max": [0.9823989868164063, 0.984375],
      "min": [0.015625, 0.015625],
      "type": "VEC2"
    },
    {
      "bufferView": 0,
      "componentType": 5125,
      "count": 15000,
      "type": "SCALAR"
    }
  ],
  "asset": {
    "extras": {
      "author": "inciprocal (https://sketchfab.com/inciprocal.com)",
      "license": "SKETCHFAB Standard (https://sketchfab.com/licenses)",
      "source": "https://sketchfab.com/3d-models/holy-pepperoni-2dd63e2f48c1494ab79dfce891e20572",
      "title": "Holy Pepperoni"
    },
    "generator": "Sketchfab-12.65.0",
    "version": "2.0"
  },
  "bufferViews": [
    {
      "buffer": 0,
      "byteLength": 60000,
      "name": "floatBufferViews",
      "target": 34963
    },
    {
      "buffer": 0,
      "byteLength": 22280,
      "byteOffset": 60000,
      "byteStride": 8,
      "name": "floatBufferViews",
      "target": 34962
    },
    {
      "buffer": 0,
      "byteLength": 66840,
      "byteOffset": 82280,
      "byteStride": 12,
      "name": "floatBufferViews",
      "target": 34962
    },
    {
      "buffer": 0,
      "byteLength": 44560,
      "byteOffset": 149120,
      "byteStride": 16,
      "name": "floatBufferViews",
      "target": 34962
    }
  ],
  "buffers": [
    {
      "byteLength": 193680,
      "uri": "scene.bin"
    }
  ],
  "extensionsRequired": ["KHR_materials_pbrSpecularGlossiness"],
  "extensionsUsed": ["KHR_materials_pbrSpecularGlossiness"],
  "images": [
    {
      "uri": "textures/fd_pizzaPepperoni_diffuse.jpeg"
    },
    {
      "uri": "textures/fd_pizzaPepperoni_specularGlossiness.png"
    },
    {
      "uri": "textures/fd_pizzaPepperoni_normal.jpeg"
    },
    {
      "uri": "textures/fd_pizzaPepperoni_occlusion.png"
    }
  ],
  "materials": [
    {
      "doubleSided": true,
      "extensions": {
        "KHR_materials_pbrSpecularGlossiness": {
          "diffuseFactor": [1.0, 1.0, 1.0, 1.0],
          "diffuseTexture": {
            "index": 0
          },
          "glossinessFactor": 1.0,
          "specularFactor": [
            0.4942040749320541, 0.4942040749320541, 0.4942040749320541
          ],
          "specularGlossinessTexture": {
            "index": 1
          }
        }
      },
      "name": "fd_pizzaPepperoni",
      "normalTexture": {
        "index": 2
      },
      "occlusionTexture": {
        "index": 3
      }
    }
  ],
  "meshes": [
    {
      "name": "Object_0",
      "primitives": [
        {
          "attributes": {
            "NORMAL": 1,
            "POSITION": 0,
            "TANGENT": 2,
            "TEXCOORD_0": 3
          },
          "indices": 4,
          "material": 0,
          "mode": 4
        }
      ]
    }
  ],
  "nodes": [
    {
      "children": [1],
      "matrix": [
        1.0, 0.0, 0.0, 0.0, 0.0, 2.220446049250313e-16, -1.0, 0.0, 0.0, 1.0,
        2.220446049250313e-16, 0.0, 0.00040600821375846863,
        2.0827415207350173e-19, -0.0009379833936691284, 1.0
      ],
      "name": "Sketchfab_model"
    },
    {
      "children": [2],
      "name": "fd_pizzaPepperoni.obj.cleaner.materialmerger.gles"
    },
    {
      "mesh": 0,
      "name": "Object_2"
    }
  ],
  "samplers": [
    {
      "magFilter": 9729,
      "minFilter": 9987,
      "wrapS": 10497,
      "wrapT": 10497
    }
  ],
  "scene": 0,
  "scenes": [
    {
      "name": "Sketchfab_Scene",
      "nodes": [0]
    }
  ],
  "textures": [
    {
      "sampler": 0,
      "source": 0
    },
    {
      "sampler": 0,
      "source": 1
    },
    {
      "sampler": 0,
      "source": 2
    },
    {
      "sampler": 0,
      "source": 3
    }
  ]
}
